<?xml version="1.0" standalone="no"?>
<!DOCTYPE svg PUBLIC "-//W3C//DTD SVG 20010904//EN"
 "http://www.w3.org/TR/2001/REC-SVG-20010904/DTD/svg10.dtd">
<svg version="1.0" xmlns="http://www.w3.org/2000/svg"
 width="318.000000pt" height="238.000000pt" viewBox="0 0 318.000000 238.000000"
 preserveAspectRatio="xMidYMid meet">

<g transform="translate(0.000000,238.000000) scale(0.100000,-0.100000)"
fill="#000000" stroke="none">
<path d="M1901 2369 c-309 -33 -605 -190 -776 -413 l-50 -65 -257 0 -258 -1
-1 -30 c-2 -38 -3 -43 -12 -57 -4 -6 -3 -15 3 -18 8 -5 8 -11 1 -19 -6 -7 -13
-23 -15 -37 -3 -13 -5 -24 -6 -24 -1 0 -3 -8 -5 -18 -2 -11 1 -15 8 -10 7 4 7
1 -1 -9 -9 -12 -10 -18 -2 -23 8 -5 8 -11 -1 -21 -10 -12 36 -14 320 -14 l331
0 133 133 c259 260 494 368 767 353 188 -10 336 -63 520 -185 77 -51 90 -56
137 -55 64 2 105 29 127 84 29 73 23 91 -52 162 -156 147 -343 231 -590 263
-123 16 -192 17 -321 4z"/>
<path d="M1243 1513 c4 -3 0 -14 -9 -24 -11 -12 -12 -19 -4 -24 8 -5 6 -13 -6
-26 -19 -21 -28 -53 -13 -43 5 3 0 -11 -11 -31 -11 -20 -16 -34 -11 -31 5 3 4
-5 -2 -18 -7 -13 -14 -23 -18 -21 -3 2 -6 -2 -6 -10 0 -8 5 -11 11 -8 6 3 5 0
-1 -8 -7 -7 -13 -17 -13 -21 0 -4 107 -8 238 -8 208 0 242 -3 277 -19 66 -30
103 -68 147 -154 50 -96 140 -192 213 -228 37 -18 67 -24 115 -24 118 0 188
50 406 288 102 112 225 155 287 100 31 -28 55 -92 62 -163 6 -55 2 -79 -20
-150 -97 -304 -311 -502 -632 -587 -85 -22 -121 -26 -263 -27 -145 -1 -175 2
-245 22 -290 83 -511 306 -635 640 -16 42 -30 71 -31 65 -1 -7 -2 -17 -3 -22
0 -5 -4 -13 -8 -17 -4 -4 -3 -13 4 -21 6 -8 7 -13 2 -11 -5 2 -11 -1 -12 -7
-2 -5 -8 -16 -14 -22 -6 -7 -7 -13 -3 -13 4 0 2 -7 -5 -15 -7 -8 -9 -15 -5
-15 4 0 1 -8 -6 -17 -8 -9 -9 -14 -3 -10 6 3 11 0 11 -8 0 -8 -5 -13 -11 -12
-5 1 -10 -3 -11 -10 0 -6 -3 -15 -7 -19 -4 -4 -2 -14 5 -22 6 -9 7 -13 2 -10
-6 4 -15 -5 -22 -18 -7 -15 -8 -26 -1 -30 5 -3 -1 -17 -14 -32 -13 -14 -17
-22 -9 -17 10 6 12 4 5 -6 -9 -15 -11 -20 -13 -45 0 -8 -5 -13 -10 -9 -21 12
0 -39 35 -88 163 -228 404 -386 709 -463 130 -34 222 -39 386 -24 173 15 268
33 394 75 363 119 576 347 668 714 16 68 21 118 21 241 1 155 1 155 -31 223
-66 139 -188 228 -332 243 -175 19 -410 -116 -538 -308 -45 -68 -88 -108 -116
-108 -24 0 -54 45 -78 118 -40 119 -161 217 -343 276 -74 25 -91 26 -284 26
-113 0 -202 -3 -199 -7z"/>
</g>
</svg>
